<svg width="25" height="25" viewBox="0 0 25 25" fill="none" xmlns="http://www.w3.org/2000/svg">
<path d="M21.1875 9.70834L6.60418 2.41667C6.02865 2.13022 5.37878 2.02825 4.74317 2.12464C4.10757 2.22104 3.51716 2.51112 3.05244 2.95534C2.58773 3.39955 2.27132 3.97628 2.14636 4.60689C2.0214 5.23751 2.09397 5.89131 2.35418 6.47917L4.85418 12.0729C4.91091 12.2082 4.94012 12.3534 4.94012 12.5C4.94012 12.6467 4.91091 12.7919 4.85418 12.9271L2.35418 18.5208C2.14241 18.9966 2.05288 19.5177 2.09374 20.0368C2.1346 20.556 2.30454 21.0567 2.58812 21.4935C2.8717 21.9302 3.25994 22.2892 3.71754 22.5377C4.17514 22.7863 4.6876 22.9165 5.20835 22.9167C5.69609 22.9118 6.17657 22.7979 6.6146 22.5833L21.1979 15.2917C21.7152 15.0315 22.15 14.6326 22.4539 14.1397C22.7577 13.6467 22.9186 13.0791 22.9186 12.5C22.9186 11.921 22.7577 11.3533 22.4539 10.8603C22.15 10.3674 21.7152 9.96856 21.1979 9.70834H21.1875ZM20.2604 13.4271L5.6771 20.7188C5.4856 20.8107 5.27057 20.8419 5.06083 20.8082C4.8511 20.7745 4.65669 20.6774 4.50367 20.5301C4.35066 20.3827 4.24635 20.1921 4.20473 19.9838C4.16312 19.7755 4.18619 19.5594 4.27085 19.3646L6.76043 13.7708C6.79266 13.6961 6.82048 13.6196 6.84376 13.5417H14.0208C14.2971 13.5417 14.5621 13.4319 14.7574 13.2366C14.9528 13.0412 15.0625 12.7763 15.0625 12.5C15.0625 12.2237 14.9528 11.9588 14.7574 11.7634C14.5621 11.5681 14.2971 11.4583 14.0208 11.4583H6.84376C6.82048 11.3804 6.79266 11.3039 6.76043 11.2292L4.27085 5.63542C4.18619 5.44059 4.16312 5.22454 4.20473 5.01622C4.24635 4.80791 4.35066 4.6173 4.50367 4.46995C4.65669 4.3226 4.8511 4.22556 5.06083 4.19183C5.27057 4.15811 5.4856 4.18931 5.6771 4.28126L20.2604 11.5729C20.4311 11.6603 20.5743 11.7931 20.6742 11.9567C20.7742 12.1203 20.8271 12.3083 20.8271 12.5C20.8271 12.6917 20.7742 12.8797 20.6742 13.0433C20.5743 13.2069 20.4311 13.3397 20.2604 13.4271Z" fill="white"/>
</svg>
